<svg width="57" height="56" viewBox="0 0 57 56" fill="none" xmlns="http://www.w3.org/2000/svg">
<rect x="0.5" width="56" height="56" rx="16" fill="#0090EF"/>
<path d="M31.101 37.5C31.101 38.88 29.985 40 28.602 40C27.224 40 26.103 38.88 26.103 37.5C26.103 36.12 27.224 35 28.602 35C29.985 35 31.101 36.119 31.101 37.5ZM28.681 16C24.652 16 21.621 18.693 21.621 24H25.576C25.576 21.696 26.482 19.811 28.6 19.811C29.847 19.811 31.17 20.639 31.284 22.222C31.407 23.888 30.517 24.733 29.392 25.804C26.468 28.584 26.576 29.853 26.576 33H30.519C30.519 31.548 30.362 30.492 32.357 28.341C33.688 26.905 35.343 25.119 35.378 22.398C35.425 18.435 32.627 16 28.681 16Z" fill="white"/>
</svg>
