<svg width="57" height="56" viewBox="0 0 57 56" fill="none" xmlns="http://www.w3.org/2000/svg">
<rect x="0.5" width="56" height="56" rx="16" fill="#0090EF"/>
<g clip-path="url(#clip0_547_3)">
<path fill-rule="evenodd" clip-rule="evenodd" d="M20.2379 15.9999H23.6296C25.0556 15.9999 25.9151 15.9736 26.655 16.7126C27.3994 17.4567 27.3678 18.3338 27.3678 19.738V23.1297C27.3678 24.5493 27.3954 25.4147 26.655 26.1551C25.9151 26.895 25.0529 26.8678 23.6296 26.8678H20.2379C18.8124 26.8678 17.9507 26.8941 17.2126 26.1551C16.4722 25.4138 16.4998 24.5502 16.4998 23.1297V19.738C16.4998 18.3175 16.4727 17.4526 17.2126 16.7126C17.9539 15.9718 18.8215 15.9999 20.2379 15.9999Z" fill="white"/>
</g>
<g clip-path="url(#clip1_547_3)">
<path fill-rule="evenodd" clip-rule="evenodd" d="M33.3703 16.0001H36.762C38.1879 16.0001 39.0474 15.9739 39.7873 16.7129C40.5318 17.4569 40.5001 18.334 40.5001 19.7383V23.13C40.5001 24.5496 40.5277 25.4149 39.7873 26.1553C39.0474 26.8952 38.1852 26.8681 36.762 26.8681H33.3703C31.9448 26.8681 31.083 26.8943 30.3449 26.1553C29.6045 25.414 29.6322 24.5505 29.6322 23.13V19.7383C29.6322 18.3177 29.605 17.4528 30.3449 16.7129C31.0862 15.9721 31.9538 16.0001 33.3703 16.0001Z" fill="white"/>
</g>
<g clip-path="url(#clip2_547_3)">
<path fill-rule="evenodd" clip-rule="evenodd" d="M20.2381 28.6793H23.6298C25.0558 28.6793 25.9153 28.6531 26.6552 29.3921C27.3996 30.1361 27.3679 31.0132 27.3679 32.4175V35.8092C27.3679 37.2288 27.3956 38.0941 26.6552 38.8345C25.9153 39.5744 25.0531 39.5473 23.6298 39.5473H20.2381C18.8126 39.5473 17.9509 39.5735 17.2128 38.8345C16.4724 38.0932 16.5 37.2297 16.5 35.8092V32.4175C16.5 30.9969 16.4728 30.132 17.2128 29.3921C17.954 28.6513 18.8217 28.6793 20.2381 28.6793Z" fill="white"/>
</g>
<g clip-path="url(#clip3_547_3)">
<path fill-rule="evenodd" clip-rule="evenodd" d="M33.3703 28.6793H36.762C38.1879 28.6793 39.0474 28.6531 39.7873 29.3921C40.5318 30.1361 40.5001 31.0132 40.5001 32.4175V35.8092C40.5001 37.2288 40.5277 38.0941 39.7873 38.8345C39.0474 39.5744 38.1852 39.5473 36.762 39.5473H33.3703C31.9448 39.5473 31.083 39.5735 30.3449 38.8345C29.6045 38.0932 29.6322 37.2297 29.6322 35.8092V32.4175C29.6322 30.9969 29.605 30.132 30.3449 29.3921C31.0862 28.6513 31.9538 28.6793 33.3703 28.6793Z" fill="white"/>
</g>
<defs>
<clipPath id="clip0_547_3">
<rect width="10.8679" height="10.8679" fill="white" transform="translate(16.5 16)"/>
</clipPath>
<clipPath id="clip1_547_3">
<rect width="10.8679" height="10.8679" fill="white" transform="translate(29.632 16)"/>
</clipPath>
<clipPath id="clip2_547_3">
<rect width="10.8679" height="10.8679" fill="white" transform="translate(16.5001 28.6792)"/>
</clipPath>
<clipPath id="clip3_547_3">
<rect width="10.8679" height="10.8679" fill="white" transform="translate(29.632 28.6792)"/>
</clipPath>
</defs>
</svg>
