<svg width="76" height="76" viewBox="0 0 76 76" fill="none" xmlns="http://www.w3.org/2000/svg">
<rect width="76" height="76" rx="24" fill="#0090EF"/>
<g clip-path="url(#clip0_3_140)">
<path fill-rule="evenodd" clip-rule="evenodd" d="M26.7873 21.7143H31.3903C33.3256 21.7143 34.492 21.6787 35.4962 22.6816C36.5065 23.6913 36.4635 24.8817 36.4635 26.7875V31.3905C36.4635 33.3171 36.501 34.4915 35.4962 35.4963C34.492 36.5005 33.3219 36.4636 31.3903 36.4636H26.7873C24.8527 36.4636 23.6832 36.4993 22.6815 35.4963C21.6767 34.4903 21.7142 33.3183 21.7142 31.3905V26.7875C21.7142 24.8596 21.6773 23.6858 22.6815 22.6816C23.6875 21.6762 24.865 21.7143 26.7873 21.7143Z" fill="white"/>
</g>
<g clip-path="url(#clip1_3_140)">
<path fill-rule="evenodd" clip-rule="evenodd" d="M44.6097 21.7145H49.2127C51.1479 21.7145 52.3143 21.6789 53.3185 22.6819C54.3288 23.6916 54.2858 24.882 54.2858 26.7877V31.3907C54.2858 33.3173 54.3233 34.4918 53.3185 35.4966C52.3143 36.5007 51.1442 36.4639 49.2127 36.4639H44.6097C42.675 36.4639 41.5055 36.4995 40.5038 35.4966C39.499 34.4905 39.5365 33.3186 39.5365 31.3907V26.7877C39.5365 24.8598 39.4996 23.686 40.5038 22.6819C41.5098 21.6764 42.6873 21.7145 44.6097 21.7145Z" fill="white"/>
</g>
<g clip-path="url(#clip2_3_140)">
<path fill-rule="evenodd" clip-rule="evenodd" d="M26.7874 38.9218H31.3904C33.3256 38.9218 34.4921 38.8862 35.4962 39.8891C36.5066 40.8988 36.4636 42.0892 36.4636 43.995V48.598C36.4636 50.5246 36.501 51.699 35.4962 52.7038C34.4921 53.708 33.3219 53.6711 31.3904 53.6711H26.7874C24.8528 53.6711 23.6833 53.7068 22.6815 52.7038C21.6767 51.6978 21.7142 50.5259 21.7142 48.598V43.995C21.7142 42.0671 21.6774 40.8933 22.6815 39.8891C23.6876 38.8837 24.8651 38.9218 26.7874 38.9218Z" fill="white"/>
</g>
<g clip-path="url(#clip3_3_140)">
<path fill-rule="evenodd" clip-rule="evenodd" d="M44.6097 38.9221H49.2127C51.1479 38.9221 52.3143 38.8864 53.3185 39.8894C54.3288 40.8991 54.2858 42.0895 54.2858 43.9952V48.5982C54.2858 50.5249 54.3233 51.6993 53.3185 52.7041C52.3143 53.7083 51.1442 53.6714 49.2127 53.6714H44.6097C42.675 53.6714 41.5055 53.707 40.5038 52.7041C39.499 51.6981 39.5365 50.5261 39.5365 48.5982V43.9952C39.5365 42.0674 39.4996 40.8936 40.5038 39.8894C41.5098 38.884 42.6873 38.9221 44.6097 38.9221Z" fill="white"/>
</g>
<defs>
<clipPath id="clip0_3_140">
<rect width="14.7493" height="14.7493" fill="white" transform="translate(21.7143 21.7144)"/>
</clipPath>
<clipPath id="clip1_3_140">
<rect width="14.7493" height="14.7493" fill="white" transform="translate(39.5363 21.7144)"/>
</clipPath>
<clipPath id="clip2_3_140">
<rect width="14.7493" height="14.7493" fill="white" transform="translate(21.7144 38.9219)"/>
</clipPath>
<clipPath id="clip3_3_140">
<rect width="14.7493" height="14.7493" fill="white" transform="translate(39.5363 38.9219)"/>
</clipPath>
</defs>
</svg>
