<svg width="57" height="56" viewBox="0 0 57 56" fill="none" xmlns="http://www.w3.org/2000/svg">
<rect x="0.5" width="56" height="56" rx="16" fill="#0090EF"/>
<path d="M27.822 18.923C27.948 18.664 28.212 18.5 28.5 18.5C28.789 18.5 29.052 18.664 29.178 18.923C30.152 20.921 31.828 24.363 31.828 24.363C31.828 24.363 35.639 24.887 37.85 25.192C38.253 25.247 38.5 25.588 38.5 25.939C38.5 26.129 38.428 26.322 38.269 26.475C36.659 28.013 33.887 30.666 33.887 30.666C33.887 30.666 34.564 34.433 34.956 36.618C35.039 37.08 34.681 37.5 34.214 37.5C34.092 37.5 33.97 37.471 33.859 37.411C31.891 36.363 28.5 34.56 28.5 34.56C28.5 34.56 25.109 36.363 23.141 37.411C23.03 37.471 22.907 37.5 22.785 37.5C22.32 37.5 21.96 37.079 22.044 36.618C22.437 34.433 23.114 30.666 23.114 30.666C23.114 30.666 20.341 28.013 18.732 26.475C18.572 26.322 18.5 26.129 18.5 25.94C18.5 25.588 18.749 25.246 19.151 25.192C21.362 24.887 25.172 24.363 25.172 24.363C25.172 24.363 26.849 20.921 27.822 18.923Z" fill="white"/>
</svg>
